# xmcd
#
# Track frame offsets:
#	150
#	14972
#	44354
#	63565
#	100707
#	130340
#	146419
#	174901
#	195898
#	212190
#	221002
#	256528
#	277846
#	301962
#	337094
#
# Disc length: 4764 seconds
#
# Revision: 2
# Processed by: cddbd v1.5.1PL0 Copyright (c) Steve Scherf et al.
# Submitted via: EasyCDDAExtractor 7.0.9.1
#
DISCID=da129a0f
DTITLE=JB Boogie - Live
DYEAR=2002
DGENRE=Blues
TTITLE0=JB Boogie
TTITLE1=Music Is My Power
TTITLE2=Your Choice
TTITLE3=Look Like Twins
TTITLE4=ClarisSwing
TTITLE5=Hey Now
TTITLE6=Bumper Boogie
TTITLE7=Lloyd Like And Lloyd Boogie
TTITLE8=Mule
TTITLE9=I am In Love Again
TTITLE10=St Michel Boogie
TTITLE11=Clarisswing (piano solo)
TTITLE12=One Boogie For You (piano solo)
TTITLE13=Blues Of Hope (piano solo)
TTITLE14=Roots (piano solo)
EXTD=
EXTT0=
EXTT1=
EXTT2=
EXTT3=
EXTT4=
EXTT5=
EXTT6=
EXTT7=
EXTT8=
EXTT9=
EXTT10=
EXTT11=
EXTT12=
EXTT13=
EXTT14=
PLAYORDER=
